<svg id="hero" xmlns="http://www.w3.org/2000/svg" width="606.352" height="648.885" viewBox="0 0 606.352 648.885">
  <path id="Caminho_2131" data-name="Caminho 2131" d="M893.824,752.518c-14.42,19.311-44.352,21.344-44.352,21.344s-6.554-29.277,7.866-48.588S901.69,703.93,901.69,703.93,908.244,733.207,893.824,752.518Z" transform="translate(-296.824 -124.977)" fill="#e6e6e6"/>
  <path id="Caminho_2132" data-name="Caminho 2132" d="M820.367,759.777c9.515,12.743,29.267,14.084,29.267,14.084s4.324-19.319-5.191-32.062-29.267-14.084-29.267-14.084S810.852,747.035,820.367,759.777Z" transform="translate(-296.824 -124.977)" fill="#e6e6e6"/>
  <rect id="Retângulo_254" data-name="Retângulo 254" width="578.34" height="321.3" transform="translate(0 18.602)" fill="#e6e6e6"/>
  <path id="Caminho_2134" data-name="Caminho 2134" d="M328.406,433.3H843.581V175.161H328.406Z" transform="translate(-296.824 -124.977)" fill="#fff"/>
  <rect id="Retângulo_255" data-name="Retângulo 255" width="576.649" height="28.748" transform="translate(0.846)" fill="#ff6a1d"/>
  <rect id="Retângulo_256" data-name="Retângulo 256" width="104.845" height="74.406" transform="translate(60.811 141.203)" fill="#e6e6e6"/>
  <rect id="Retângulo_257" data-name="Retângulo 257" width="289.17" height="8.455" transform="translate(228.358 141.203)" fill="#e6e6e6"/>
  <rect id="Retângulo_258" data-name="Retângulo 258" width="289.17" height="8.455" transform="translate(228.358 175.024)" fill="#e6e6e6"/>
  <rect id="Retângulo_259" data-name="Retângulo 259" width="289.17" height="8.455" transform="translate(228.358 208.845)" fill="#e6e6e6"/>
  <path id="Caminho_2135" data-name="Caminho 2135" d="M719.86,471.151l-2.821,16.218s-13.4,37.372-9.872,72.629,6.346,59.936,6.346,59.936-10.577,88.847-6.346,120.578c0,0,11.282,15.513,26.09-.705L744.54,622.755l11.987-83.206L767.1,632.627l7.051,105.77s9.872,10.577,24.68,1.41l-1.41-119.873s12.692-101.539,10.577-110-16.218-41.6-16.218-41.6Z" transform="translate(-296.824 -124.977)" fill="#2f2e41"/>
  <path id="Caminho_2136" data-name="Caminho 2136" d="M712.809,741.217l.705,14.808s-10.747,16.762,2.65,16.762h0c9.689-.031,18.446,4.33,17.3-5.291l-1.617-13.586L729.027,739.1Z" transform="translate(-296.824 -124.977)" fill="#2f2e41"/>
  <path id="Caminho_2137" data-name="Caminho 2137" d="M794.519,741.217l-.705,14.808s10.747,16.762-2.65,16.762h0c-9.689-.031-18.446,4.33-17.3-5.291l1.617-13.586L778.3,739.1Z" transform="translate(-296.824 -124.977)" fill="#2f2e41"/>
  <circle id="Elipse_41" data-name="Elipse 41" cx="22.564" cy="22.564" r="22.564" transform="translate(433.261 178.705)" fill="#9f616a"/>
  <path id="Caminho_2138" data-name="Caminho 2138" d="M742.777,341.054s2.821,32.436-5.641,37.372,35.257,2.821,35.257,2.821-9.872-38.077-9.167-42.308Z" transform="translate(-296.824 -124.977)" fill="#ffb8b8"/>
  <path id="Caminho_2139" data-name="Caminho 2139" d="M785.437,361.855s-28.205-12.692-67.693,0c0,0-17.276,4.583-19.391,10.224s23.622,70.161,20.8,81.443a61.238,61.238,0,0,0-1.41,21.154s62.052-8.462,76.859-2.115c0,0-5.641-18.333-4.231-31.026s13.4-71.924,13.4-71.924S797.425,363.266,785.437,361.855Z" transform="translate(-296.824 -124.977)" fill="#ff6a1d"/>
  <path id="Caminho_2140" data-name="Caminho 2140" d="M810.117,529.677s-10.577,32.436.705,33.141,6.346-24.68,6.346-24.68l-1.41-8.462Z" transform="translate(-296.824 -124.977)" fill="#9f616a"/>
  <path id="Caminho_2141" data-name="Caminho 2141" d="M788.963,373.843l14.808-4.231s8.462,6.346,8.462,14.808-1.41,62.757-1.41,62.757l10.577,81.09-16.218,5.641-19.039-87.436Z" transform="translate(-296.824 -124.977)" fill="#ff6a1d"/>
  <path id="Caminho_2142" data-name="Caminho 2142" d="M694.475,529.677s10.577,32.436-.705,33.141-6.346-24.68-6.346-24.68l1.41-8.462Z" transform="translate(-296.824 -124.977)" fill="#9f616a"/>
  <path id="Caminho_2143" data-name="Caminho 2143" d="M715.629,373.843l-14.808-4.231s-8.462,6.346-8.462,14.808,1.41,62.757,1.41,62.757l-10.577,81.09,16.218,5.641,19.039-87.436Z" transform="translate(-296.824 -124.977)" fill="#ff6a1d"/>
  <path id="Caminho_2144" data-name="Caminho 2144" d="M762.521,293.105s-19.744-3.526-23.974,22.564-2.115,35.962-9.167,38.782-9.167,6.346-7.756,11.987,6.346,7.756-.705,18.333,15.513,7.756,33.846,16.218,60.641-3.526,55-13.4-14.808-5.641-10.577-16.923,5.641-13.4,0-20.449S802.008,299.451,762.521,293.105Z" transform="translate(-296.824 -124.977)" fill="#2f2e41"/>
</svg>
